<?xml version="1.0" encoding="UTF-8"?>
<svg id="Layer_1" data-name="Layer 1" xmlns="http://www.w3.org/2000/svg" viewBox="0 0 315.1499 76.1743">
  <defs>
    <style>
      .cls-1 {
        fill: #fff;
      }
    </style>
  </defs>
  <path class="cls-1" d="M0,18.5601h6.0811c.79,3.9097,3.6333,5.8052,8.6484,5.8052s7.3848-1.5005,7.3848-3.5933c0-2.7646-3.9097-3.436-8.4512-4.1465C7.5425,15.6777.3159,14.6509.3159,8.3325.3159,3.3569,5.1333,0,12.9917,0c8.3721,0,13.8613,3.6333,14.8486,9.9912h-5.7656c-.79-3.5938-4.0283-5.6079-8.9248-5.6079-4.6597,0-6.792,1.501-6.792,3.4355,0,2.8438,4.4619,3.436,9.3589,4.2256,5.8838.9478,12.3999,2.2114,12.3999,8.2139,0,5.0547-4.8574,8.4902-13.1504,8.4902-8.6479,0-13.9004-3.6328-14.9663-10.1885Z"/>
  <path class="cls-1" d="M29.8921,17.4546c0-7.0293,5.2124-11.4521,12.3994-11.4521,6.437,0,11.2153,3.5938,12.084,9.3984h-5.5283c-.6714-3.396-3.1592-5.3311-6.5557-5.3311-3.9092,0-6.6733,2.6855-6.6733,7.3057,0,4.6992,2.7642,7.3452,6.6733,7.3452,3.4756,0,6.0029-2.0142,6.5952-5.5679h5.4888c-.75,5.9629-5.4492,9.6353-12.084,9.6353-7.2656,0-12.3994-4.3833-12.3994-11.3335Z"/>
  <path class="cls-1" d="M56.2305.395h5.7261v4.3833h-5.7261V.395ZM56.2305,6.6343h5.7261v21.5615h-5.7261V6.6343Z"/>
  <path class="cls-1" d="M63.8906,17.4546c0-6.9106,5.252-11.4521,12.3208-11.4521,6.792,0,12.1626,4.3438,12.1626,11.689v.395h-18.8364c.2368,4.2256,2.8433,6.7134,6.6738,6.7134,3.0801,0,5.3311-1.6191,6.2788-4.5415h5.5679c-1.2637,5.2129-5.6865,8.5298-11.8862,8.5298-7.1479,0-12.2812-4.4624-12.2812-11.3335ZM69.814,14.9668h12.7158c-.8296-3.1592-3.1987-5.0151-6.3579-5.0151-3.1987,0-5.5679,1.856-6.3579,5.0151Z"/>
  <path class="cls-1" d="M90.3076,6.6343h5.7261v2.9619c1.8164-2.1719,4.5415-3.4355,7.8188-3.4355,5.4893,0,9.2012,3.3564,9.2012,8.5693v13.4658h-5.7261v-12.5576c0-3.5146-2.251-5.3311-5.4888-5.3311-2.4487,0-4.5811,1.1055-5.8052,2.8037v15.085h-5.7261V6.6343Z"/>
  <path class="cls-1" d="M114.9082,17.4546c0-7.0293,5.2124-11.4521,12.3999-11.4521,6.4365,0,11.2148,3.5938,12.0835,9.3984h-5.5283c-.6714-3.396-3.1592-5.3311-6.5552-5.3311-3.9097,0-6.6738,2.6855-6.6738,7.3057,0,4.6992,2.7642,7.3452,6.6738,7.3452,3.4746,0,6.002-2.0142,6.5947-5.5679h5.4888c-.75,5.9629-5.4497,9.6353-12.0835,9.6353-7.2666,0-12.3999-4.3833-12.3999-11.3335Z"/>
  <path class="cls-1" d="M140.9302,17.4546c0-6.9106,5.252-11.4521,12.3208-11.4521,6.792,0,12.1626,4.3438,12.1626,11.689v.395h-18.8364c.2368,4.2256,2.8433,6.7134,6.6738,6.7134,3.0801,0,5.3311-1.6191,6.2788-4.5415h5.5679c-1.2637,5.2129-5.6865,8.5298-11.8862,8.5298-7.1475,0-12.2812-4.4624-12.2812-11.3335ZM146.8535,14.9668h12.7158c-.8296-3.1592-3.1987-5.0151-6.3579-5.0151-3.1987,0-5.5684,1.856-6.3579,5.0151Z"/>
  <path class="cls-1" d="M166.0444,31.7896c2.3301-.1582,3.3965-1.2637,3.3965-3.5938h-3.3174v-5.4102h6.437v5.0547c0,4.1465-2.4878,6.5552-6.5161,6.5552v-2.606Z"/>
  <path class="cls-1" d="M.5527,47.939h12.7944c9.3198,0,15.5986,5.1333,15.5986,13.8608,0,8.6084-6.3579,13.7817-15.6377,13.7817H.5527v-27.6426ZM6.5552,52.5195v18.5601h6.5552c6.042,0,9.6753-3.1987,9.6753-9.2402,0-6.1211-3.6333-9.3198-9.6753-9.3198h-6.5552Z"/>
  <path class="cls-1" d="M30.6816,64.8403c0-6.9106,5.252-11.4521,12.3208-11.4521,6.792,0,12.1626,4.3438,12.1626,11.689v.395h-18.8364c.2368,4.2256,2.8433,6.7129,6.6738,6.7129,3.0801,0,5.3311-1.6187,6.2788-4.541h5.5679c-1.2637,5.2129-5.6865,8.5303-11.8862,8.5303-7.1479,0-12.2812-4.4629-12.2812-11.334ZM36.605,62.3525h12.7158c-.8296-3.1592-3.1987-5.0151-6.3579-5.0151-3.1987,0-5.5679,1.856-6.3579,5.0151Z"/>
  <path class="cls-1" d="M56.7822,64.8403c0-7.0293,5.2124-11.4521,12.3999-11.4521,6.4365,0,11.2148,3.5938,12.0835,9.3984h-5.5283c-.6714-3.396-3.1592-5.3311-6.5552-5.3311-3.9097,0-6.6738,2.6855-6.6738,7.3057,0,4.6992,2.7642,7.3452,6.6738,7.3452,3.4746,0,6.002-2.0142,6.5947-5.5679h5.4888c-.75,5.9629-5.4497,9.6357-12.0835,9.6357-7.2666,0-12.3999-4.3838-12.3999-11.334Z"/>
  <path class="cls-1" d="M82.8042,64.8403c0-6.9897,5.2124-11.4521,12.5576-11.4521,7.4238,0,12.5972,4.4624,12.5972,11.4521,0,6.8711-5.1338,11.334-12.5972,11.334-7.3848,0-12.5576-4.4629-12.5576-11.334ZM102.2329,64.7612c0-4.6201-2.7642-7.3057-6.8711-7.3057-4.0278,0-6.8315,2.6855-6.8315,7.3057,0,4.6602,2.8037,7.3452,6.8315,7.3452,4.1069,0,6.8711-2.6851,6.8711-7.3452Z"/>
  <path class="cls-1" d="M109.8926,54.02h5.7261v2.9619c1.8164-2.1719,4.5415-3.4355,7.8188-3.4355,5.4893,0,9.2012,3.3564,9.2012,8.5693v13.4658h-5.7261v-12.5576c0-3.5146-2.251-5.3311-5.4888-5.3311-2.4487,0-4.5811,1.1055-5.8052,2.8037v15.085h-5.7261v-21.5615Z"/>
  <path class="cls-1" d="M134.3745,67.96h5.4497c.7505,2.8828,3.0801,4.3833,6.5156,4.3833,3.5938,0,5.2524-1.1055,5.2524-2.6455,0-2.0142-2.9224-2.5273-6.3184-3.041-4.8179-.7109-10.623-1.4609-10.623-6.4761,0-3.9492,3.8701-6.7529,10.2676-6.7529,6.4365,0,10.9385,2.8433,12.0444,7.8188h-5.3315c-.9082-2.7246-3.1592-3.9883-6.6733-3.9883-3.1592,0-4.7388,1.0664-4.7388,2.4087,0,1.7773,2.5664,2.3301,5.6865,2.8042,4.8965.7104,11.2544,1.3423,11.2544,6.6733,0,3.9888-4.0674,6.9897-10.7017,6.9897-6.4766,0-11.0176-2.7637-12.084-8.1743Z"/>
  <path class="cls-1" d="M163.5957,69.9741v-11.9258h-6.2788v-4.0283h6.2788v-4.4624h5.647v4.4624h7.8589v4.0283h-7.8589v11.0566c0,1.6191.9087,2.3696,2.9619,2.3696h4.897v4.1069h-7.4243c-4.1465,0-6.0815-1.9346-6.0815-5.6074Z"/>
  <path class="cls-1" d="M178.877,54.02h5.7261v3.9492c1.6587-2.8037,4.2646-4.3833,7.7793-4.3833.2373,0,.3555,0,.5527.0396v4.9756c-.5918-.0791-1.1846-.1187-1.7764-.1187-2.7646,0-5.3315,1.106-6.5557,3.1987v13.9004h-5.7261v-21.5615Z"/>
  <path class="cls-1" d="M194.6724,67.4863v-13.4663h5.7266v12.5576c0,3.5146,2.251,5.3315,5.5283,5.3315,2.4482,0,4.541-1.1455,5.7656-2.8433v-15.0459h5.7256v21.5615h-5.7256v-3.001c-1.8564,2.1719-4.5811,3.4746-7.8193,3.4746-5.5283,0-9.2012-3.3564-9.2012-8.5688Z"/>
  <path class="cls-1" d="M219.313,64.8403c0-7.0293,5.2129-11.4521,12.3994-11.4521,6.4375,0,11.2149,3.5938,12.084,9.3984h-5.5283c-.6719-3.396-3.1592-5.3311-6.5557-5.3311-3.9092,0-6.6738,2.6855-6.6738,7.3057,0,4.6992,2.7646,7.3452,6.6738,7.3452,3.4756,0,6.0029-2.0142,6.5947-5.5679h5.4893c-.75,5.9629-5.4492,9.6357-12.084,9.6357-7.2656,0-12.3994-4.3838-12.3994-11.334Z"/>
  <path class="cls-1" d="M249.9165,69.9741v-11.9258h-6.2793v-4.0283h6.2793v-4.4624h5.6465v4.4624h7.8584v4.0283h-7.8584v11.0566c0,1.6191.9082,2.3696,2.9619,2.3696h4.8965v4.1069h-7.4238c-4.1465,0-6.0811-1.9346-6.0811-5.6074Z"/>
  <path class="cls-1" d="M263.855,64.8403c0-6.9106,5.252-11.4521,12.3203-11.4521,6.793,0,12.1631,4.3438,12.1631,11.689v.395h-18.8369c.2373,4.2256,2.8438,6.7129,6.6738,6.7129,3.0801,0,5.3311-1.6187,6.2793-4.541h5.5684c-1.2637,5.2129-5.6865,8.5303-11.8867,8.5303-7.1475,0-12.2812-4.4629-12.2812-11.334ZM269.7788,62.3525h12.7148c-.8291-3.1592-3.1982-5.0151-6.3574-5.0151-3.1992,0-5.5684,1.856-6.3574,5.0151Z"/>
  <path class="cls-1" d="M289.9556,64.8008c0-6.7134,4.541-11.2544,11.0566-11.2544,3.5938,0,6.5557,1.5005,8.4121,4.1855v-9.793h5.7256v27.6426h-5.7256v-3.7119c-1.8564,2.6855-4.8184,4.1855-8.4121,4.1855-6.5547,0-11.0566-4.4619-11.0566-11.2544ZM309.4243,64.8403c0-4.6597-2.8037-7.3452-6.9502-7.3452-4.0684,0-6.793,2.6855-6.793,7.2661,0,4.6206,2.7246,7.3452,6.793,7.3452,4.1465,0,6.9502-2.7246,6.9502-7.2661Z"/>
</svg>