<?xml version="1.0" encoding="UTF-8"?>
<svg id="Layer_3" data-name="Layer 3" xmlns="http://www.w3.org/2000/svg" viewBox="0 0 432 432">
  <defs>
    <style>
      .cls-1 {
        stroke-linecap: round;
        stroke-width: 13.251px;
      }

      .cls-1, .cls-2 {
        fill: none;
        stroke: #231f20;
        stroke-miterlimit: 10;
      }

      .cls-2 {
        stroke-width: 13.251px;
      }
    </style>
  </defs>
  <path class="cls-2" d="M161.5249,208.8232c-3.0395-7.1259-4.7216-14.9694-4.7216-23.2059,0-32.6932,26.5033-59.1964,59.1968-59.1964s59.1968,26.5031,59.1968,59.1964c0,8.1733-1.6565,15.9597-4.652,23.0419"/>
  <g>
    <path class="cls-2" d="M165.633,316.7086c-32.6577-16.411-49.3928-49.9731-54.7917-90.1133-1.2658-9.4113,6.0929-17.7729,15.5889-17.7729h179.1395c9.496,0,16.8547,8.3616,15.5889,17.7729-5.3989,40.1402-21.0984,73.7023-53.8678,90.1133"/>
    <path class="cls-2" d="M319.1844,236.6909c36.4856,0,23.9554,66.8937-17.3246,44.2359"/>
  </g>
  <path class="cls-2" d="M115.1339,316.7077h201.7321c2.8997,0,5.2538,2.3542,5.2538,5.2538h0c0,12.9725-10.532,23.5045-23.5045,23.5045h-165.2308c-12.9725,0-23.5045-10.532-23.5045-23.5045h0c0-2.8997,2.3542-5.2538,5.2538-5.2538Z"/>
  <g>
    <line class="cls-1" x1="215.879" y1="91.8733" x2="215.879" y2="47.0117"/>
    <line class="cls-1" x1="264.6249" y1="104.8704" x2="287.0557" y2="66.0191"/>
    <line class="cls-1" x1="300.341" y1="140.4981" x2="339.1923" y2="118.0672"/>
    <line class="cls-1" x1="131.5384" y1="140.7073" x2="92.6871" y2="118.2765"/>
    <line class="cls-1" x1="167.1658" y1="104.9908" x2="144.735" y2="66.1395"/>
    <line class="cls-1" x1="118.5413" y1="189.4534" x2="73.6797" y2="189.4534"/>
    <line class="cls-1" x1="313.4587" y1="189.2111" x2="358.3203" y2="189.211"/>
  </g>
</svg>