<?xml version="1.0" encoding="UTF-8"?>
<svg id="Layer_3" data-name="Layer 3" xmlns="http://www.w3.org/2000/svg" viewBox="0 0 679.3138 432">
  <defs>
    <style>
      .cls-1 {
        fill: #231f20;
      }

      .cls-2 {
        stroke-linecap: round;
        stroke-width: 13.251px;
      }

      .cls-2, .cls-3 {
        fill: none;
        stroke: #231f20;
        stroke-miterlimit: 10;
      }

      .cls-3 {
        stroke-width: 13.251px;
      }
    </style>
  </defs>
  <path class="cls-3" d="M161.5249,208.8232c-3.0395-7.1259-4.7216-14.9694-4.7216-23.2059,0-32.6932,26.5033-59.1964,59.1968-59.1964s59.1968,26.5031,59.1968,59.1964c0,8.1733-1.6565,15.9597-4.652,23.0419"/>
  <g>
    <path class="cls-3" d="M165.633,316.7086c-32.6577-16.411-49.3928-49.9731-54.7917-90.1133-1.2658-9.4113,6.0929-17.7729,15.5889-17.7729h179.1395c9.496,0,16.8547,8.3616,15.5889,17.7729-5.3989,40.1402-21.0984,73.7023-53.8678,90.1133"/>
    <path class="cls-3" d="M319.1844,236.6909c36.4856,0,23.9554,66.8937-17.3246,44.2359"/>
  </g>
  <path class="cls-3" d="M115.1339,316.7077h201.7321c2.8997,0,5.2538,2.3542,5.2538,5.2538h0c0,12.9725-10.532,23.5045-23.5045,23.5045h-165.2308c-12.9725,0-23.5045-10.532-23.5045-23.5045h0c0-2.8997,2.3542-5.2538,5.2538-5.2538Z"/>
  <g>
    <line class="cls-2" x1="215.879" y1="91.8733" x2="215.879" y2="47.0117"/>
    <line class="cls-2" x1="264.6249" y1="104.8704" x2="287.0557" y2="66.0191"/>
    <line class="cls-2" x1="300.341" y1="140.4981" x2="339.1923" y2="118.0672"/>
    <line class="cls-2" x1="131.5384" y1="140.7073" x2="92.6871" y2="118.2765"/>
    <line class="cls-2" x1="167.1658" y1="104.9908" x2="144.735" y2="66.1395"/>
    <line class="cls-2" x1="118.5413" y1="189.4534" x2="73.6797" y2="189.4534"/>
    <line class="cls-2" x1="313.4587" y1="189.2111" x2="358.3203" y2="189.211"/>
  </g>
  <g>
    <path class="cls-1" d="M414.0791,102.9541h-6.4834v23.4258c0,1.8154-1.3828,3.9761-4.1494,3.9761-2.5928,0-3.9756-2.1606-3.9756-3.9761v-55.2358c0-1.8154,1.3828-3.8896,4.1484-3.8896h9.3359c10.8916,0,18.585,7.52,18.585,17.5474v.6914c0,6.9155-3.6309,12.6206-9.5088,15.4731l12.1885,23.5981c1.3828,2.7661-.6055,5.7915-3.458,5.7915-1.5557,0-2.9385-.6914-3.8027-2.334l-12.8799-25.0679ZM412.9551,95.6069c5.2734,0,10.459-3.1118,10.459-10.2002v-.5186c0-7.0884-5.1855-10.2866-10.459-10.2866h-5.3594v21.0054h5.3594Z"/>
    <path class="cls-1" d="M451.0732,126.3799c0,1.8154-1.3828,3.9761-4.1494,3.9761-2.5928,0-3.9756-2.1606-3.9756-3.9761v-56.0137c0-1.8154,1.3828-3.9766,3.9756-3.9766,2.7666,0,4.1494,2.1611,4.1494,3.9766v56.0137Z"/>
    <path class="cls-1" d="M461.2734,117.8223l-.5186-2.4204c-.7783-3.2847.9502-5.6187,3.6299-5.6187,2.334,0,3.6309,1.6421,4.0635,3.8032l.5186,2.5933c1.0371,5.1865,4.4082,7.002,8.3848,7.002,4.667,0,8.6436-2.5068,8.6436-8.2983,0-4.3223-2.2471-7.4341-4.4951-9.2495l-11.2373-9.3354c-3.6299-2.939-7.8662-6.8286-7.8662-14.4355,0-9.1631,6.2246-15.4731,15.9922-15.4731,10.0273,0,15.5596,6.8291,15.5596,12.9663v.5186c0,1.8154-1.2969,3.5439-3.8037,3.5439s-3.458-1.7285-4.0625-3.7168l-.3457-.8643c-1.0381-3.458-3.8037-5.2729-7.3477-5.2729-4.582,0-8.0391,2.8525-8.0391,8.0391,0,3.7168,1.8154,6.1372,3.7168,7.6929l14.0039,11.5835c1.7285,1.4692,5.8779,5.5322,5.8779,13.4849,0,9.854-6.4834,15.9912-16.5107,15.9912s-14.6953-6.3101-16.1641-12.5337Z"/>
    <path class="cls-1" d="M512.6162,126.3799c0,1.8154-1.3828,3.9761-4.1494,3.9761-2.5928,0-3.9756-2.1606-3.9756-3.9761v-56.0137c0-1.8154,1.3828-3.9766,3.9756-3.9766,2.7666,0,4.1494,2.1611,4.1494,3.9766v56.0137Z"/>
    <path class="cls-1" d="M552.8096,70.3662c0-1.8154,1.3838-3.9766,4.1494-3.9766,2.5938,0,3.9766,2.1611,3.9766,3.9766v54.7168c0,3.1987-1.3828,5.2729-4.0625,5.2729-1.9883,0-3.6309-1.1235-4.7549-3.8032l-18.4111-40.3682h-.4326c.5186,6.9155.8643,13.7441.8643,19.5356v20.6597c0,1.8154-1.3828,3.9761-4.1494,3.9761-2.5928,0-3.9756-2.1606-3.9756-3.9761v-54.7173c0-3.2847,1.3828-5.2729,4.0625-5.2729,1.9883,0,3.5439,1.124,4.7539,3.9766l18.4121,40.1084h.4326c-.5186-6.915-.8652-13.4849-.8652-19.2764v-20.832Z"/>
    <path class="cls-1" d="M602.0791,95.7798c2.5928,0,3.9766,1.9014,3.9766,3.8032v15.1274c0,8.9033-6.5703,15.6455-16.6836,15.6455-10.2861,0-16.8564-6.7422-16.8564-15.6455v-32.5884c0-8.9897,6.4834-15.7324,16.6836-15.7324,10.6318,0,15.9912,6.8291,15.9912,12.8799v.5186c0,1.8154-1.3828,3.6304-4.0625,3.6304-2.5928,0-3.458-1.7285-4.0625-3.8032l-.2598-.8643c-1.0371-3.1987-3.6299-5.0137-7.4336-5.0137-4.4082,0-8.7305,2.8525-8.7305,8.9033v31.4644c0,6.0513,4.2354,8.9038,8.6436,8.9038,4.4951,0,8.6445-2.8525,8.6445-8.9038v-11.0645h-6.2236c-2.0742-.0864-3.3711-1.7285-3.3711-3.6304s1.3828-3.6304,3.8037-3.6304h9.9404Z"/>
    <path class="cls-1" d="M397.1367,221.5469l-.5186-2.4199c-.7783-3.2847.9502-5.6182,3.6299-5.6182,2.334,0,3.6309,1.6421,4.0635,3.8027l.5186,2.5938c1.0371,5.1865,4.4082,7.001,8.3848,7.001,4.667,0,8.6436-2.5068,8.6436-8.2979,0-4.3218-2.2471-7.4336-4.4951-9.249l-11.2373-9.3354c-3.6299-2.939-7.8662-6.8286-7.8662-14.4355,0-9.1631,6.2246-15.4731,15.9922-15.4731,10.0273,0,15.5596,6.8291,15.5596,12.9663v.5186c0,1.8154-1.2969,3.5439-3.8037,3.5439s-3.458-1.7285-4.0625-3.7168l-.3457-.8643c-1.0381-3.458-3.8037-5.2729-7.3477-5.2729-4.582,0-8.0391,2.8525-8.0391,8.0391,0,3.7168,1.8154,6.1372,3.7168,7.6929l14.0039,11.5835c1.7285,1.4692,5.8779,5.5322,5.8779,13.4844,0,9.8545-6.4834,15.9912-16.5107,15.9912s-14.6953-6.3096-16.1641-12.5342Z"/>
    <path class="cls-1" d="M473.6348,218.1758c0,8.9902-6.3965,15.9053-16.8555,15.9053s-16.8564-6.915-16.8564-15.9053v-44.084c0-1.8154,1.3828-3.9766,4.0625-3.9766,2.7666,0,4.0635,2.1611,4.0635,3.9766v43.6523c0,6.2236,3.8896,8.9893,8.7305,8.9893,4.7539,0,8.7305-2.7656,8.7305-8.9893v-43.6523c0-1.8154,1.2959-3.9766,3.9756-3.9766,2.8525,0,4.1494,2.1611,4.1494,3.9766v44.084Z"/>
    <path class="cls-1" d="M512.6162,174.0918c0-1.8154,1.3838-3.9766,4.1494-3.9766,2.5938,0,3.9766,2.1611,3.9766,3.9766v54.7168c0,3.1982-1.3828,5.2725-4.0625,5.2725-1.9883,0-3.6309-1.124-4.7549-3.8037l-18.4111-40.3672h-.4326c.5186,6.9155.8643,13.7441.8643,19.5356v20.6587c0,1.8154-1.3828,3.9766-4.1494,3.9766-2.5928,0-3.9756-2.1611-3.9756-3.9766v-54.7163c0-3.2847,1.3828-5.2729,4.0625-5.2729,1.9883,0,3.5439,1.124,4.7539,3.9766l18.4121,40.1084h.4326c-.5186-6.915-.8652-13.4849-.8652-19.2764v-20.832Z"/>
    <path class="cls-1" d="M423.9336,319.6553c0-1.8154,1.2959-3.9766,3.9756-3.9766s4.1494,2.1611,4.1494,3.9766v2.5068c0,8.9033-6.6562,15.6455-16.8564,15.6455s-16.7695-6.7422-16.7695-15.6455v-32.5889c0-8.9893,6.5703-15.7314,16.8564-15.7314,10.459,0,15.8184,6.8281,15.8184,12.8789v.5195c0,1.8145-1.4688,3.6299-3.9756,3.6299-2.5938,0-3.6309-1.8154-4.2363-3.8037l-.2588-.8643c-.9512-3.2842-3.5439-5.0137-7.2607-5.0137-4.668,0-8.8174,2.8525-8.8174,8.8174v31.6377c0,6.1367,4.3223,8.8164,8.6436,8.8164s8.7314-2.6797,8.7314-8.8164v-1.9883Z"/>
    <path class="cls-1" d="M445.2832,334.6094c-.6914,2.5068-2.4209,3.1982-4.0625,3.1982-2.7666,0-4.8408-2.1611-3.8037-5.5322l15.9912-55.0625c.6914-2.0752,2.334-3.3711,4.0625-3.3711,1.9023,0,3.5449,1.2959,4.1494,3.3711l15.9922,55.0625c.9502,3.2852-1.0381,5.5322-3.8037,5.5322-1.6426,0-3.3711-.6914-4.0625-3.1982l-3.1982-11.7559h-18.1533l-3.1113,11.7559ZM450.3828,315.6787h14.1768l-4.4092-16.4238c-.6914-2.5068-1.7285-6.915-2.5059-10.9775h-.3467c-.6914,4.0625-1.8145,8.4707-2.5068,10.9775l-4.4082,16.4238Z"/>
    <path class="cls-1" d="M494.0332,301.7617h13.4854c2.5068,0,3.8896,1.8154,3.8896,3.7168,0,1.9023-1.3828,3.6309-3.8896,3.6309h-13.4854v24.7217c0,1.8154-1.3828,3.9766-4.1494,3.9766-2.5928,0-3.9756-2.1611-3.9756-3.9766v-55.2354c0-1.8154,1.3828-3.8896,4.1484-3.8896h21.4375c2.5068,0,3.8896,1.7285,3.8896,3.6299,0,1.9023-1.3828,3.7178-3.8896,3.7178h-17.4609v19.708Z"/>
    <path class="cls-1" d="M524.1123,278.5957c0-1.8154,1.3828-3.8896,4.1484-3.8896h22.1289c2.5068,0,3.8906,1.7285,3.8906,3.6299,0,1.9023-1.3838,3.7178-3.8906,3.7178h-18.1523v19.708h13.4854c2.5059,0,3.8896,1.8154,3.8896,3.7168,0,1.9023-1.3838,3.6309-3.8896,3.6309h-13.4854v20.4863h18.1523c2.5068,0,3.8906,1.8154,3.8906,3.6309,0,1.9883-1.3838,3.7168-3.8906,3.7168h-22.1289c-2.7656,0-4.1484-2.0742-4.1484-3.8896v-54.458Z"/>
  </g>
</svg>